<?xml version="1.0" encoding="utf-8"?>
<!-- Generator: Adobe Illustrator 16.0.0, SVG Export Plug-In . SVG Version: 6.00 Build 0)  -->
<!DOCTYPE svg PUBLIC "-//W3C//DTD SVG 1.1//EN" "http://www.w3.org/Graphics/SVG/1.1/DTD/svg11.dtd">
<svg version="1.1" id="Capa_1" xmlns="http://www.w3.org/2000/svg" xmlns:xlink="http://www.w3.org/1999/xlink" x="0px" y="0px"
	 width="24px" height="24px" viewBox="0 0 24 24" enable-background="new 0 0 24 24" xml:space="preserve">
<path fill="#FFFFFF" d="M18.776,2.185c0-1.069-0.868-1.936-1.937-1.936H7.16c-1.069,0-1.936,0.867-1.936,1.936v19.361
	c0,1.068,0.867,1.936,1.936,1.936h9.68c1.068,0,1.937-0.867,1.937-1.936V2.185z M10.548,2.185h2.904
	c0.267,0,0.484,0.217,0.484,0.484s-0.218,0.484-0.484,0.484h-2.904c-0.267,0-0.484-0.217-0.484-0.484S10.281,2.185,10.548,2.185z
	 M12,21.546c-0.536,0-0.968-0.433-0.968-0.968s0.433-0.969,0.968-0.969c0.535,0,0.967,0.434,0.967,0.969S12.535,21.546,12,21.546z
	 M16.84,18.642H7.16V5.066h9.68V18.642z"/>
</svg>
