<?xml version="1.0" encoding="utf-8"?>
<!-- Generator: Adobe Illustrator 16.0.0, SVG Export Plug-In . SVG Version: 6.00 Build 0)  -->
<!DOCTYPE svg PUBLIC "-//W3C//DTD SVG 1.1//EN" "http://www.w3.org/Graphics/SVG/1.1/DTD/svg11.dtd">
<svg version="1.1" id="Capa_1" xmlns="http://www.w3.org/2000/svg" xmlns:xlink="http://www.w3.org/1999/xlink" x="0px" y="0px"
	 width="24px" height="24px" viewBox="0 0 24 24" enable-background="new 0 0 24 24" xml:space="preserve">
<path fill="#FFFFFF" d="M22,3.2C22,2.537,21.463,2,20.8,2H3.2C2.537,2,2,2.537,2,3.2V15h20V3.2z M20,13H4V4h16V13z M22,16H2
	c-0.197,0.372-2,4.582-2,4.998C0,21.52,0.418,22,1.002,22h21.996C23.582,22,24,21.52,24,20.998C24,20.582,22.197,16.372,22,16z
	 M9.771,21l0.467-1h3.524l0.467,1H9.771z"/>
</svg>
