<?xml version="1.0" encoding="utf-8"?>
<!-- Generator: Adobe Illustrator 16.0.0, SVG Export Plug-In . SVG Version: 6.00 Build 0)  -->
<!DOCTYPE svg PUBLIC "-//W3C//DTD SVG 1.1//EN" "http://www.w3.org/Graphics/SVG/1.1/DTD/svg11.dtd">
<svg version="1.1" id="Capa_1" xmlns="http://www.w3.org/2000/svg" xmlns:xlink="http://www.w3.org/1999/xlink" x="0px" y="0px"
	 width="24px" height="24px" viewBox="0 0 24 24" enable-background="new 0 0 24 24" xml:space="preserve">
<path fill="#FFFFFF" d="M5.641,22.568L0,24l1.397-5.674L5.641,22.568z M2.812,16.912l4.243,4.242L24,4.242L19.758,0L2.812,16.912z
	 M16.926,14.129l-1.414,1.414l0.709,0.708l1.413-1.414l1.414,1.414l-2.122,2.122l0.707,0.707l2.122-2.122l1.417,1.386l-2.829,2.828
	l-4.231-4.232l-1.416,1.412L18.344,24L24,18.344L18.357,12.7L16.926,14.129z M7.039,9.868l-4.21-4.21l2.828-2.829L7.026,4.23
	L4.905,6.351l0.707,0.707l2.121-2.122l1.414,1.415L7.733,7.765L8.44,8.472l1.414-1.414l1.432-1.429L5.657,0L0,5.657l5.623,5.624
	L7.039,9.868z"/>
</svg>
